<?xml version="1.0" standalone="no"?>
<!DOCTYPE svg PUBLIC "-//W3C//DTD SVG 1.1//EN" "http://www.w3.org/Graphics/SVG/1.1/DTD/svg11.dtd" >
<svg xmlns="http://www.w3.org/2000/svg" xmlns:svg="http://www.w3.org/2000/svg" xmlns:xlink="http://www.w3.org/1999/xlink" viewBox="0 0 1024 1024"><path d="M381.52 245.73Q339.15 201.13 396.49 211.01Q371.71 221.04 369.26 244.86Q383.32 235.07 424.24 246.96Q407.64 312.9 424.27 282.56Q420.76 322.94 425.91 290.57Q392.84 337.64 419.99 282.35Q440.75 317.26 489.89 353.8Q501.98 343.52 473.56 358.72Q485.43 321.49 457.94 318.52Q445.83 347.76 487.08 405.56Q436.38 337.01 406.14 358Q446.45 347.92 449.79 330.01Q406.89 355.35 371.09 379.4Q413.99 445.41 374.53 411.04Q419.43 451.68 390.69 458.27Q412.59 418.82 458.25 420.11Q494.7 459.32 497.54 454.13Q442.85 423.45 464.47 404.76Q512.74 448.28 442.12 495.36Q474.53 450.62 401.24 494.16Q365.15 509.6 325.1 464.64Q244.48 502.11 268.29 440.82Q273.07 502.11 235.57 458.07Q280.54 411.79 345.49 393.91Q355.56 438.81 327.3 434.31Q356.33 382.6 388.72 380.63Q325.44 405.32 369.62 389.8Q346.26 372.13 379.89 337.83Q342.39 363.49 298.54 377.57Q259.23 341.49 236.52 366.87Q263.7 356.24 253.77 341.48Q264.9 307.71 280.77 276.99Q334.89 307.79 341.34 323.55Q382.48 294.58 335.83 276.72Q319.06 218.64 376.17 268.92ZM598.93 251.03Q686.51 244.1 719.57 283.72Q759.64 294.61 752.22 270.33Q787.84 264.03 720.61 280.87Q774.39 260.32 753.31 262.9Q769.09 331.97 773.23 302.17Q716.05 353.17 715.4 356.17Q640.79 295.89 661.01 317.56Q629.98 341.32 656.5 376.9Q667.84 349.85 666.53 351.16Q620.02 326.24 661.47 330.75Q704.33 398.83 714.53 352.73Q716.34 344.84 756.72 406.54Q793.59 388.99 738.23 437.69Q750.51 458.99 781.15 483.03Q757.36 564.76 776.98 603.92Q742.22 669.95 758.09 637.8Q735.07 681.91 651.14 690.41Q561.58 650.35 596.26 668.39Q555.16 685.73 580.22 685.22Q533.27 695.24 554.8 679.84Q519.68 600.48 561.38 463.51L514.23 393.91L530.75 363.76Q563.67 398.79 584.26 364.25Q621.92 391.05 582.01 389.34Q588.58 329.74 597.59 334.16Q575.35 349.77 595.9 315.04Q597.85 290.07 531.05 329.98Q491.18 330.25 528.77 274.73Q498.12 326 565.99 307.34Q493.89 267.32 574.77 314.13Q576.8 293.62 647.73 266.38ZM609.35 411.11Q569.28 401.38 529.84 396.54Q551.17 474.87 537.62 435.43Q603.66 458.08 658.36 480.25Q717.17 420.36 696.44 436.67Q749.17 407.07 678.6 418.25Q719.37 412.48 612.67 377.14L588.96 376.84ZM580.82 528.98Q595.38 485.1 551.37 483.71L561.34 536.45L645.11 569.77L671.96 552.6L672.29 545.88Q690.08 522.79 682.7 495.49Q675.25 485.86 663.99 507.53Q706.17 507.82 622.95 500.17Q559.14 527.9 565.07 522.31Q585.38 521.17 600.23 473.59ZM437.51 486.13Q412.03 531.12 486.83 512.31Q503.18 510.77 458.89 554.22Q435.5 520.27 453.9 570.61Q447.21 558.43 465.09 569.74Q437.27 604.45 492.68 630.96Q477.14 669.4 493.95 718.2Q473.17 710.21 434.83 753.84Q453.1 752.55 394.18 698.57Q351.11 716.68 320.55 748.41Q279.35 694.31 241.09 696.98Q231.04 637.52 302.57 622.14Q289.43 541.9 250.17 531.13Q252.94 489.18 242.8 549.46Q315.95 545.62 313.13 549.02Q437.58 507.78 457.03 502.14Q393.2 529.82 440.26 546.42ZM343.21 560.62Q344.12 603.67 275.39 552.58Q293.33 591.09 335.89 588.16Q336.4 584.47 359.7 610.03L298.91 682.06L354.02 685.27Q449.14 695.16 452 698.08Q460.85 689.96 408.5 644.05Q464.97 610.59 435.45 614.07Q443.29 618.96 473.39 597.05Q446.81 571.74 454.14 588.24Q421.06 594.19 375.46 558.69Q332.03 586.04 300.44 537.53Q307.73 538.98 284.96 568.51ZM549.1 581.73Q615.35 601.7 605.09 583.11Q612.49 644.51 612.82 610.05Q575.06 657.76 584.38 617Q613.09 592.1 643.25 585.79Q715.57 635.17 726.36 600.02Q710.35 648.92 710.16 626.47Q703.73 543.12 669.06 549.41Q667.55 610.54 669.08 554.4Q592.93 554.74 582.55 566.19ZM541.56 697.12Q536.18 650.99 603.24 700.36Q571.02 648.11 572.86 664.95Q612.53 711.31 618.11 709.36Q636.31 750.88 562.5 746.17Q582.91 785.17 527.63 756.15Q514.75 749.8 504.91 729.42Q522.62 745.11 546.46 732.75ZM719.97 672.73Q679.1 699.26 704.34 681.28Q646.16 712.08 710.83 755.57Q719.22 713.74 716.49 769.58Q801.02 766.45 741.26 784.35Q800.15 752.39 788.67 717.98Q763.25 699.24 765.72 695.05Q765.63 732.41 695.74 725.17Q682.97 702.5 663.38 684.01Z" fill="black"></path></svg>