<?xml version="1.0" standalone="no"?>
<!DOCTYPE svg PUBLIC "-//W3C//DTD SVG 1.1//EN" "http://www.w3.org/Graphics/SVG/1.1/DTD/svg11.dtd" >
<svg xmlns="http://www.w3.org/2000/svg" xmlns:svg="http://www.w3.org/2000/svg" xmlns:xlink="http://www.w3.org/1999/xlink" viewBox="0 0 1024 1024"><path d="M365.0 249.0Q373.0 240.0 380.0 240.5Q387.0 241.0 396.0 250.0Q404.0 258.0 405.0 265.5Q406.0 273.0 402.0 289.0Q397.0 305.0 403.0 310.0Q409.0 315.0 435.0 318.0Q460.0 320.0 471.0 324.0Q482.0 328.0 486.0 335.5Q490.0 343.0 479.0 356.0Q471.0 365.0 466.5 366.5Q462.0 368.0 444.0 367.0Q419.0 365.0 415.0 367.5Q411.0 370.0 404.5 388.0Q398.0 406.0 398.0 415.0Q398.0 422.0 404.0 423.5Q410.0 425.0 439.0 424.0Q463.0 423.0 470.0 430.0Q476.0 436.0 477.5 444.0Q479.0 452.0 475.0 459.0Q467.0 471.0 426.5 477.5Q386.0 484.0 326.0 482.0Q268.0 480.0 261.0 473.0Q251.0 464.0 258.0 446.0Q267.0 427.0 313.0 429.0Q339.0 430.0 346.0 424.5Q353.0 419.0 356.0 396.0Q359.0 375.0 352.0 368.0Q347.0 362.0 340.5 361.5Q334.0 361.0 312.0 362.0Q254.0 366.0 251.0 340.0Q249.0 326.0 261.0 320.0Q273.0 314.0 306.0 312.0Q346.0 310.0 350.0 306.0Q354.0 302.0 355.0 280.0Q356.0 258.0 365.0 249.0ZM608.0 272.0Q659.0 271.0 689.5 270.5Q720.0 270.0 736.0 273.5Q752.0 277.0 757.0 281.5Q762.0 286.0 762.0 296.0Q762.0 311.0 750.0 315.5Q738.0 320.0 702.0 320.0Q667.0 320.0 659.0 323.5Q651.0 327.0 648.0 343.0Q645.0 355.0 651.0 359.0Q656.0 363.0 699.0 365.0Q702.0 365.0 709.0 365.0Q747.0 366.0 753.5 378.5Q760.0 391.0 759.0 466.0Q759.0 478.0 759.0 485.0Q759.0 579.0 755.5 614.0Q752.0 649.0 743.0 656.0Q726.0 670.0 628.0 667.0Q584.0 666.0 575.0 671.0Q564.0 677.0 552.0 669.0Q540.0 661.0 536.0 646.0Q528.0 619.0 524.0 444.0L522.0 387.0L533.0 376.0Q544.0 365.0 562.0 362.0Q582.0 359.0 588.0 354.5Q594.0 350.0 594.0 338.0Q594.0 325.0 586.0 320.5Q578.0 316.0 559.0 318.0Q522.0 323.0 522.0 301.0Q522.0 290.0 528.0 282.0Q532.0 276.0 544.5 274.5Q557.0 273.0 608.0 272.0ZM572.0 417.0Q567.0 425.0 568.0 434.0Q569.0 443.0 575.0 445.0Q580.0 447.0 643.0 444.5Q706.0 442.0 710.0 436.0Q720.0 420.0 699.0 415.0Q683.0 412.0 636.0 409.0L579.0 407.0ZM577.0 499.0Q572.0 509.0 578.0 519.0L584.0 530.0L647.0 531.0L709.0 532.0L712.0 520.0Q714.0 507.0 712.0 498.0Q710.0 492.0 701.0 491.0Q692.0 490.0 645.0 490.0Q598.0 490.0 589.0 491.0Q580.0 492.0 577.0 499.0ZM425.0 514.0Q432.0 515.0 448.5 518.0Q465.0 521.0 470.0 527.5Q475.0 534.0 474.0 555.0Q474.0 579.0 475.0 590.0Q477.0 618.0 473.0 658.5Q469.0 699.0 462.0 711.0Q456.0 723.0 441.0 726.0Q426.0 729.0 372.0 730.0Q313.0 731.0 298.0 727.0Q283.0 723.0 278.0 705.0Q271.0 677.0 265.5 613.0Q260.0 549.0 264.0 536.0Q267.0 525.0 282.5 522.0Q298.0 519.0 350.0 517.0Q416.0 516.0 417.5 514.5Q419.0 513.0 425.0 514.0ZM315.0 571.0Q308.0 576.0 307.5 579.0Q307.0 582.0 313.0 592.0Q320.0 606.0 322.0 640.0L324.0 674.0L355.0 675.0Q413.0 677.0 422.0 660.0Q426.0 653.0 428.0 628.0Q430.0 603.0 436.0 592.0Q439.0 584.0 439.0 581.0Q439.0 578.0 433.0 573.0Q425.0 566.0 374.0 565.0Q341.0 564.0 331.0 565.0Q321.0 566.0 315.0 571.0ZM582.0 578.0Q578.0 582.0 578.5 597.0Q579.0 612.0 583.0 615.0Q587.0 618.0 618.0 620.0Q649.0 622.0 679.0 621.0Q698.0 620.0 706.0 614.5Q714.0 609.0 714.0 597.0Q714.0 582.0 704.5 579.0Q695.0 576.0 646.0 575.0Q586.0 574.0 582.0 578.0ZM538.0 703.0Q562.0 680.0 567.0 680.0Q574.0 680.0 585.5 688.5Q597.0 697.0 599.0 704.0Q601.0 712.0 586.0 732.0Q560.0 764.0 533.0 764.0Q502.0 764.0 512.0 738.0Q518.0 722.0 538.0 703.0ZM692.0 687.0Q674.0 691.0 674.0 708.0Q674.0 717.0 682.0 725.5Q690.0 734.0 714.0 750.0Q764.0 784.0 772.0 754.0Q774.0 743.0 767.0 731.0Q760.0 719.0 745.0 711.0Q736.0 706.0 714.0 693.0Q700.0 685.0 692.0 687.0Z" fill="black"></path></svg>